 <svg
      width="40"
      height="40"
      viewBox="0 0 45 45"
      fill="none"
      xmlns="http://www.w3.org/2000/svg"
    >
      <path
        d="M30.4583 37.1771H12.5417C6.37833 37.1771 2.23958 33.0383 2.23958 26.875V16.125C2.23958 9.96166 6.37833 5.82291 12.5417 5.82291H30.4583C36.6217 5.82291 40.7604 9.96166 40.7604 16.125V26.875C40.7604 33.0383 36.6217 37.1771 30.4583 37.1771ZM12.5417 8.51041C7.91916 8.51041 4.92708 11.5025 4.92708 16.125V26.875C4.92708 31.4975 7.91916 34.4896 12.5417 34.4896H30.4583C35.0808 34.4896 38.0729 31.4975 38.0729 26.875V16.125C38.0729 11.5025 35.0808 8.51041 30.4583 8.51041H12.5417Z"
        fill="#FF0000"
      />
      <path
        d="M18.9738 27.8246C18.4542 27.8246 17.9525 27.6992 17.5046 27.4484C16.4654 26.8571 15.8562 25.6567 15.8562 24.1696V18.8663C15.8562 17.3792 16.4475 16.1788 17.5046 15.5875C18.5438 14.9963 19.8875 15.1037 21.1596 15.8741L25.585 18.5258C26.8034 19.2604 27.502 20.3534 27.502 21.5179C27.502 22.6825 26.8034 23.7754 25.585 24.51L21.1596 27.1617C20.425 27.5917 19.6725 27.8246 18.9738 27.8246ZM18.9738 17.8629C18.9021 17.8629 18.8483 17.8808 18.8125 17.8987C18.6871 17.9704 18.5437 18.2929 18.5437 18.8483V24.1517C18.5437 24.6892 18.6871 25.0117 18.8125 25.1013C18.9558 25.1729 19.2963 25.1371 19.7621 24.8504L24.1875 22.1988C24.6354 21.93 24.7967 21.6613 24.7967 21.5C24.7967 21.3388 24.6354 21.0879 24.1875 20.8012L19.7621 18.1496C19.4396 17.9525 19.153 17.8629 18.9738 17.8629Z"
        fill="#FF0000"
      />
    </svg>